<?xml version="1.0"?><svg xmlns="http://www.w3.org/2000/svg" xmlns:xlink="http://www.w3.org/1999/xlink" viewBox="89.75 305.97 218.9 126.03" preserveAspectRatio="xMidYMid" width="100%" height="100%"><clipPath id="122"><rect x="0.5" y="0.5" width="539" height="719" /></clipPath><g id="drawing"><rect x="89.75" y="305.97" width="100%" height="100%" fill="rgb(255, 255, 255)" /><g id="page" clip-path="url(#122)"><g id="Oval"><circle cx="234.21" cy="365.83" r="32.68" stroke="rgb(0, 0, 0)" stroke-width="1" fill="none" /></g><line x1="229.88" y1="372" x2="229.88" y2="360" stroke="rgb(0, 0, 0)" stroke-width="1" shape-rendering="auto" /><line x1="254.63" y1="366" x2="229.88" y2="366" stroke="rgb(0, 0, 0)" stroke-width="1" shape-rendering="auto" /><line x1="254.63" y1="411.38" x2="254.63" y2="366" stroke="rgb(0, 0, 0)" stroke-width="1" shape-rendering="auto" /><line x1="229.88" y1="388.88" x2="229.88" y2="376.88" stroke="rgb(0, 0, 0)" stroke-width="1" shape-rendering="auto" /><line x1="254.63" y1="382.88" x2="229.88" y2="382.88" stroke="rgb(0, 0, 0)" stroke-width="1" shape-rendering="auto" /><line x1="229.88" y1="342.94" x2="229.88" y2="354.94" stroke="rgb(0, 0, 0)" stroke-width="1" shape-rendering="auto" /><line x1="254.63" y1="348.94" x2="229.88" y2="348.94" stroke="rgb(0, 0, 0)" stroke-width="1" shape-rendering="auto" /><line x1="254.63" y1="321" x2="254.63" y2="348.94" stroke="rgb(0, 0, 0)" stroke-width="1" shape-rendering="auto" /><line x1="224.63" y1="389.06" x2="224.63" y2="342.94" stroke="rgb(0, 0, 0)" stroke-width="1" shape-rendering="auto" /><g id="Spline"><path d="M229.97 366 C229.97 366 240 363.19 240 363.19 C240 363.19 239.91 368.44 239.91 368.44 C239.91 368.44 229.97 366 229.97 366 Z" stroke="rgb(0, 0, 0)" stroke-width="1" fill-rule="evenodd" stroke-linejoin="bevel" fill="rgb(0, 0, 0)" shape-rendering="geometricPrecision" /></g><line x1="224.63" y1="389.06" x2="179.63" y2="389.06" stroke="rgb(0, 0, 0)" stroke-width="1" shape-rendering="auto" /><line x1="259.54" y1="411.38" x2="249.6" y2="411.38" stroke="rgb(0, 0, 0)" stroke-width="1" shape-rendering="auto" /><line x1="257.93" y1="414" x2="251.21" y2="414" stroke="rgb(0, 0, 0)" stroke-width="1" shape-rendering="auto" /><line x1="193.44" y1="395.83" x2="193.44" y2="388.88" stroke="rgb(0, 0, 0)" stroke-width="1" shape-rendering="auto" /><line x1="198.23" y1="411.38" x2="188.29" y2="411.38" stroke="rgb(0, 0, 0)" stroke-width="1" shape-rendering="auto" /><line x1="196.62" y1="414" x2="189.9" y2="414" stroke="rgb(0, 0, 0)" stroke-width="1" shape-rendering="auto" /><line x1="191.28" y1="403.67" x2="193.68" y2="404.31" stroke="rgb(0, 0, 0)" stroke-width="0.5" shape-rendering="auto" /><line x1="191.28" y1="403.67" x2="195.19" y2="402.62" stroke="rgb(0, 0, 0)" stroke-width="0.5" shape-rendering="auto" /><line x1="191.28" y1="401.55" x2="195.19" y2="402.6" stroke="rgb(0, 0, 0)" stroke-width="0.5" shape-rendering="auto" /><line x1="191.28" y1="401.55" x2="195.19" y2="400.51" stroke="rgb(0, 0, 0)" stroke-width="0.5" shape-rendering="auto" /><line x1="191.28" y1="399.39" x2="195.19" y2="400.43" stroke="rgb(0, 0, 0)" stroke-width="0.5" shape-rendering="auto" /><line x1="191.28" y1="399.39" x2="195.19" y2="398.34" stroke="rgb(0, 0, 0)" stroke-width="0.5" shape-rendering="auto" /><line x1="191.28" y1="397.33" x2="195.19" y2="398.38" stroke="rgb(0, 0, 0)" stroke-width="0.5" shape-rendering="auto" /><line x1="191.28" y1="397.33" x2="195.19" y2="396.28" stroke="rgb(0, 0, 0)" stroke-width="0.5" shape-rendering="auto" /><line x1="193.06" y1="395.64" x2="195.19" y2="396.21" stroke="rgb(0, 0, 0)" stroke-width="0.5" shape-rendering="auto" /><line x1="193.35" y1="411.11" x2="193.35" y2="404.16" stroke="rgb(0, 0, 0)" stroke-width="1" shape-rendering="auto" /><line x1="266.88" y1="402.63" x2="254.75" y2="402.63" stroke="rgb(0, 0, 0)" stroke-width="1" shape-rendering="auto" /><g id="Oval"><circle cx="179.5" cy="388.88" r="2.25" stroke="rgb(0, 0, 0)" stroke-width="1" fill="rgb(0, 0, 0)" /></g><g id="Oval"><circle cx="267.13" cy="402.5" r="2.25" stroke="rgb(0, 0, 0)" stroke-width="1" fill="rgb(0, 0, 0)" /></g><g id="Oval"><circle cx="254.63" cy="320.5" r="2.25" stroke="rgb(0, 0, 0)" stroke-width="1" fill="rgb(0, 0, 0)" /></g><g><text xml:space="preserve" text-anchor="start" text-rendering="geometricPrecision"><tspan x="261.25" y="324.57" font-family="Arial" font-weight="bold" font-size="12" fill="rgb(0, 0, 0)">D</tspan></text></g><g><text xml:space="preserve" text-anchor="start" text-rendering="geometricPrecision"><tspan x="272.07" y="407.07" font-family="Arial" font-weight="bold" font-size="12" fill="rgb(0, 0, 0)">S</tspan></text></g><g><text xml:space="preserve" text-anchor="start" text-rendering="geometricPrecision"><tspan x="165.4" y="393.07" font-family="Arial" font-weight="bold" font-size="12" fill="rgb(0, 0, 0)">G</tspan></text></g><g id="Rectangle"><path d="M110.69 324.5 L110.69 324.5 L149.25 324.5 L149.25 344.5 L110.69 344.5 Z" stroke="rgb(191, 191, 191)" stroke-width="1" fill-rule="evenodd" stroke-linejoin="miter" fill="rgb(191, 191, 191)" shape-rendering="geometricPrecision" /></g><g id="Oval"><circle cx="130.25" cy="334.5" r="5.34999999999999" stroke="rgb(0, 0, 0)" stroke-width="1" fill="rgb(0, 0, 0)" /></g><line x1="117.75" y1="393" x2="117.75" y2="361.5" stroke="rgb(0, 0, 0)" stroke-width="4" shape-rendering="auto" /><line x1="130.25" y1="393" x2="130.25" y2="361.5" stroke="rgb(0, 0, 0)" stroke-width="4" shape-rendering="auto" /><line x1="142.75" y1="393" x2="142.75" y2="361.5" stroke="rgb(0, 0, 0)" stroke-width="4" shape-rendering="auto" /><g id="Rectangle"><path d="M110.69 344.44 L110.69 344.44 L149.25 344.44 L149.25 369 L110.69 369 Z" stroke="rgb(64, 64, 64)" stroke-width="1" fill-rule="evenodd" stroke-linejoin="miter" fill="rgb(64, 64, 64)" shape-rendering="geometricPrecision" /></g><g><text xml:space="preserve" text-anchor="start" text-rendering="geometricPrecision"><tspan x="111.25" y="408" font-family="Arial" font-weight="bold" font-size="12" fill="rgb(0, 0, 0)">G D S</tspan></text></g><g><text xml:space="preserve" text-anchor="start" text-rendering="geometricPrecision"><tspan x="251.13" y="317.13" font-family="Arial" font-weight="bold" font-size="12" fill="rgb(0, 0, 0)">+</tspan></text></g><g><text xml:space="preserve" text-anchor="start" text-rendering="geometricPrecision"><tspan x="176.13" y="385.13" font-family="Arial" font-weight="bold" font-size="12" fill="rgb(0, 0, 0)">+</tspan></text></g><line x1="269" y1="407.25" x2="265.34" y2="407.25" stroke="rgb(0, 0, 0)" stroke-width="1" shape-rendering="auto" /><g><text xml:space="preserve" text-anchor="start" text-rendering="geometricPrecision"><tspan x="89.75" y="429" font-family="Arial" font-size="12" fill="rgb(0, 0, 0)">Enhancement mode N-channel MOSFET</tspan></text></g><g><text xml:space="preserve" text-anchor="start" text-rendering="geometricPrecision"><tspan x="197" y="407.38" font-family="Arial" font-size="6" fill="rgb(0, 0, 0)">R</tspan><tspan font-family="Arial" dy="1.36" font-size="4.5" fill="rgb(0, 0, 0)">GS</tspan><tspan font-family="Arial" dy="-1.36" font-size="6" fill="rgb(0, 0, 0)">=1M</tspan></text></g><g><text xml:space="preserve" text-anchor="start" text-rendering="geometricPrecision"><tspan x="220.13" y="407.25" font-family="Symbol" font-size="6" fill="rgb(0, 0, 0)">W</tspan></text></g></g></g></svg>